<svg width="25" height="25" viewBox="0 0 25 25" fill="none" xmlns="http://www.w3.org/2000/svg">
<path d="M5.20831 15.1918H5.98956C5.98949 15.0399 5.9451 14.8913 5.86184 14.7642C5.77859 14.6371 5.66007 14.537 5.52081 14.4762L5.20831 15.1918ZM19.7916 15.1918L19.4791 14.4762C19.3399 14.537 19.2214 14.6371 19.1381 14.7642C19.0549 14.8913 19.0105 15.0399 19.0104 15.1918H19.7916ZM16.4062 7.29183C16.4062 7.49903 16.4885 7.69774 16.6351 7.84426C16.7816 7.99077 16.9803 8.07308 17.1875 8.07308C17.3947 8.07308 17.5934 7.99077 17.7399 7.84426C17.8864 7.69774 17.9687 7.49903 17.9687 7.29183H16.4062ZM7.03123 7.29183C7.03123 7.49903 7.11354 7.69774 7.26005 7.84426C7.40657 7.99077 7.60528 8.07308 7.81248 8.07308C8.01968 8.07308 8.21839 7.99077 8.36491 7.84426C8.51142 7.69774 8.59373 7.49903 8.59373 7.29183H7.03123ZM7.29165 4.42725C5.70311 4.42725 4.17964 5.05829 3.05637 6.18155C1.93311 7.30482 1.30206 8.82829 1.30206 10.4168H2.86456C2.86456 9.24269 3.33099 8.11665 4.16123 7.28641C4.99147 6.45617 6.11751 5.98975 7.29165 5.98975V4.42725ZM17.7083 5.98975C18.8825 5.98975 20.0085 6.45617 20.8387 7.28641C21.669 8.11665 22.1354 9.24269 22.1354 10.4168H23.6979C23.6979 8.82829 23.0669 7.30482 21.9436 6.18155C20.8203 5.05829 19.2969 4.42725 17.7083 4.42725V5.98975ZM15.625 22.1356H9.37498V23.6981H15.625V22.1356ZM9.37498 22.1356C8.37081 22.1356 7.69581 22.1335 7.19269 22.0658C6.71248 22.0012 6.50623 21.8897 6.37081 21.7533L5.26665 22.8595C5.74061 23.3335 6.33123 23.5262 6.9854 23.6147C7.61665 23.7002 8.41456 23.6981 9.37498 23.6981V22.1356ZM4.42706 18.7502C4.42706 19.7106 4.42498 20.5085 4.5104 21.1397C4.5979 21.7939 4.79165 22.3845 5.2656 22.8585L6.37081 21.7543C6.2354 21.6189 6.12394 21.4127 6.05831 20.9314C5.99165 20.4293 5.98956 19.7543 5.98956 18.7502H4.42706ZM19.0104 18.7502C19.0104 19.7543 19.0083 20.4293 18.9406 20.9325C18.876 21.4127 18.7646 21.6189 18.6281 21.7543L19.7344 22.8585C20.2083 22.3845 20.401 21.7939 20.4896 21.1397C20.575 20.5085 20.5729 19.7106 20.5729 18.7502H19.0104ZM15.625 23.6981C16.5854 23.6981 17.3833 23.7002 18.0146 23.6147C18.6687 23.5272 19.2604 23.3335 19.7344 22.8585L18.6291 21.7543C18.4937 21.8897 18.2875 22.0012 17.8062 22.0668C17.3041 22.1335 16.6291 22.1356 15.625 22.1356V23.6981ZM7.29165 5.98975C7.51387 5.98975 7.73192 6.00572 7.94581 6.03766L8.17394 4.49183C7.88174 4.44949 7.5869 4.42791 7.29165 4.42725V5.98975ZM12.5 1.30225C11.357 1.30194 10.2426 1.65978 9.31342 2.32549C8.38427 2.99119 7.68706 3.93131 7.31977 5.01371L8.79894 5.51579C9.06134 4.7425 9.55948 4.07089 10.2233 3.59537C10.8872 3.11985 11.6834 2.86434 12.5 2.86475V1.30225ZM7.31977 5.01371C7.12913 5.58 7.03168 6.17348 7.03123 6.771H8.59373C8.59373 6.33037 8.66665 5.9085 8.79998 5.51579L7.31977 5.01371ZM17.7083 4.42725C17.409 4.42725 17.1149 4.44877 16.826 4.49183L17.0552 6.03766C17.2713 6.00458 17.4897 5.98856 17.7083 5.98975V4.42725ZM12.5 2.86475C13.3164 2.86456 14.1124 3.12017 14.776 3.59568C15.4397 4.07118 15.9376 4.74267 16.2 5.51579L17.6791 5.01371C17.3119 3.93147 16.6149 2.99148 15.6859 2.32579C14.757 1.6601 13.6428 1.30215 12.5 1.30225V2.86475ZM16.2 5.51579C16.3333 5.9085 16.4062 6.33037 16.4062 6.771H17.9687C17.9687 6.15745 17.8666 5.56683 17.6791 5.01371L16.2 5.51579ZM5.98956 18.7502V15.1918H4.42706V18.7502H5.98956ZM5.52081 14.4762C4.73102 14.1315 4.059 13.5638 3.58717 12.8427C3.11533 12.1217 2.8642 11.2786 2.86456 10.4168H1.30206C1.30185 11.5824 1.64176 12.7228 2.28011 13.6981C2.91845 14.6734 3.8275 15.4412 4.89581 15.9075L5.52081 14.4762ZM19.0104 15.1918V18.7502H20.5729V15.1918H19.0104ZM22.1354 10.4168C22.1358 11.2786 21.8846 12.1217 21.4128 12.8427C20.941 13.5638 20.2689 14.1315 19.4791 14.4762L20.1041 15.9075C21.1725 15.4412 22.0815 14.6734 22.7199 13.6981C23.3582 12.7228 23.6981 11.5824 23.6979 10.4168H22.1354ZM16.4062 6.771V7.29183H17.9687V6.771H16.4062ZM7.03123 6.771V7.29183H8.59373V6.771H7.03123Z" fill="#B1B1B1"/>
<path d="M5.20831 18.75H19.7916" stroke="#B1B1B1" stroke-width="1.5" stroke-linecap="round" stroke-linejoin="round"/>
</svg>
