<svg width="15" height="17" viewBox="0 0 15 17" fill="none" xmlns="http://www.w3.org/2000/svg">
<path d="M1.04167 14.9844H4.8875V9.69583C4.8875 9.45764 4.9684 9.25799 5.13021 9.09687C5.29132 8.93507 5.49097 8.85417 5.72917 8.85417H8.85417C9.09236 8.85417 9.29236 8.93507 9.45417 9.09687C9.61528 9.25799 9.69583 9.45764 9.69583 9.69583V14.9844H13.5417V5.93021C13.5417 5.82326 13.5184 5.72604 13.4719 5.63854C13.4253 5.55104 13.3618 5.47465 13.2812 5.40937L7.67292 1.18229C7.56597 1.08924 7.43889 1.04271 7.29167 1.04271C7.14444 1.04271 7.01771 1.08924 6.91146 1.18229L1.30208 5.40937C1.22222 5.47604 1.15868 5.55243 1.11146 5.63854C1.06424 5.72465 1.04097 5.82187 1.04167 5.93021V14.9844ZM0 14.9844V5.93021C0 5.66354 0.0597222 5.41111 0.179167 5.17292C0.298611 4.93472 0.463194 4.73854 0.672917 4.58437L6.28229 0.336459C6.57604 0.112153 6.91146 0 7.28854 0C7.66562 0 8.00312 0.112153 8.30104 0.336459L13.9104 4.58333C14.1208 4.7375 14.2854 4.93403 14.4042 5.17292C14.5236 5.41111 14.5833 5.66354 14.5833 5.93021V14.9844C14.5833 15.2635 14.4795 15.5069 14.2719 15.7146C14.0642 15.9222 13.8208 16.026 13.5417 16.026H9.49583C9.25694 16.026 9.05694 15.9455 8.89583 15.7844C8.73472 15.6226 8.65417 15.4226 8.65417 15.1844V9.89688H5.92917V15.1844C5.92917 15.4233 5.84861 15.6233 5.6875 15.7844C5.52639 15.9455 5.32674 16.026 5.08854 16.026H1.04167C0.7625 16.026 0.519097 15.9222 0.311458 15.7146C0.103819 15.5069 0 15.2635 0 14.9844Z" fill="#B1B1B1"/>
</svg>
