<svg width="25" height="25" viewBox="0 0 25 25" fill="none" xmlns="http://www.w3.org/2000/svg">
<path d="M21.875 12.4998C21.878 14.361 21.3244 16.1806 20.2854 17.7248C19.4286 19.0029 18.2699 20.0502 16.912 20.774C15.5541 21.4979 14.0388 21.8759 12.5 21.8748C10.9612 21.8759 9.44587 21.4979 8.08796 20.774C6.73006 20.0502 5.57144 19.0029 4.71458 17.7248C3.89868 16.5085 3.37907 15.1181 3.1974 13.6648C3.01574 12.2116 3.17708 10.736 3.66849 9.35632C4.1599 7.97667 4.9677 6.73133 6.02715 5.72015C7.0866 4.70896 8.36823 3.96006 9.76928 3.53347C11.1703 3.10687 12.6518 3.01446 14.095 3.26364C15.5383 3.51282 16.903 4.09665 18.0799 4.96834C19.2568 5.84003 20.2131 6.97533 20.8722 8.28322C21.5312 9.59111 21.8747 11.0352 21.875 12.4998Z" stroke="#B1B1B1" stroke-width="1.5"/>
<path d="M13.802 9.37484C13.802 10.0936 13.2187 10.6769 12.5 10.6769V12.2394C13.2597 12.2394 13.9883 11.9376 14.5255 11.4004C15.0627 10.8632 15.3645 10.1346 15.3645 9.37484H13.802ZM12.5 10.6769C11.7812 10.6769 11.1979 10.0936 11.1979 9.37484H9.63538C9.63538 10.1346 9.93718 10.8632 10.4744 11.4004C11.0116 11.9376 11.7402 12.2394 12.5 12.2394V10.6769ZM11.1979 9.37484C11.1979 8.65609 11.7812 8.07275 12.5 8.07275V6.51025C11.7402 6.51025 11.0116 6.81206 10.4744 7.34927C9.93718 7.88648 9.63538 8.6151 9.63538 9.37484H11.1979ZM12.5 8.07275C13.2187 8.07275 13.802 8.65609 13.802 9.37484H15.3645C15.3645 8.6151 15.0627 7.88648 14.5255 7.34927C13.9883 6.81206 13.2597 6.51025 12.5 6.51025V8.07275ZM5.38121 18.5998L4.63225 18.3769L4.51038 18.7853L4.7885 19.1082L5.38121 18.5998ZM19.6187 18.5998L20.2125 19.1092L20.4895 18.7863L20.3677 18.3769L19.6187 18.5998ZM9.37496 16.4061H15.625V14.8436H9.37496V16.4061ZM9.37496 14.8436C8.30935 14.8433 7.27213 15.187 6.4176 15.8237C5.56307 16.4603 4.9369 17.3558 4.63225 18.3769L6.13017 18.8228C6.33876 18.1243 6.76723 17.5118 7.35185 17.0764C7.93646 16.641 8.64601 16.4059 9.37496 16.4061V14.8436ZM12.5 21.0936C11.2598 21.095 10.034 20.8273 8.90734 20.309C7.78064 19.7907 6.77982 19.0342 5.97392 18.0915L4.7885 19.1082C5.74106 20.2217 6.92375 21.1165 8.25505 21.7288C9.58635 22.3411 11.0346 22.6575 12.5 22.6561V21.0936ZM15.625 16.4061C17.1562 16.4061 18.4531 17.4248 18.8698 18.8228L20.3677 18.3769C20.063 17.3558 19.4368 16.4603 18.5823 15.8237C17.7278 15.187 16.6906 14.8433 15.625 14.8436V16.4061ZM19.026 18.0915C18.2201 19.0342 17.2193 19.7907 16.0926 20.309C14.9659 20.8273 13.7401 21.095 12.5 21.0936V22.6561C13.9653 22.6575 15.4136 22.3411 16.7449 21.7288C18.0762 21.1165 19.2599 20.2227 20.2125 19.1092L19.026 18.0915Z" fill="#B1B1B1"/>
</svg>
