<svg width="21" height="22" viewBox="0 0 21 22" fill="none" xmlns="http://www.w3.org/2000/svg">
<path d="M15.5995 18.4648L18.9128 15.2028L18.1825 14.4713L15.5995 17.0182L14.4853 15.8807L13.7538 16.618L15.5995 18.4648ZM3.23167 5.5195H15.4373V4.35283H3.2305L3.23167 5.5195ZM16.3333 21.1353C15.0337 21.1353 13.9312 20.6823 13.0258 19.7762C12.1197 18.8708 11.6667 17.7683 11.6667 16.4687C11.6667 15.169 12.1197 14.0661 13.0258 13.16C13.9319 12.2539 15.0344 11.8012 16.3333 11.802C17.6322 11.8028 18.7351 12.2554 19.642 13.16C20.5489 14.0646 21.0016 15.1674 21 16.4687C21 17.7676 20.5473 18.8701 19.642 19.7762C18.7351 20.6823 17.6322 21.1353 16.3333 21.1353ZM0 19.5638V1.88533C0 1.36267 0.183556 0.917778 0.550667 0.550667C0.917778 0.183556 1.36267 0 1.88533 0H16.7825C17.3036 0 17.7481 0.183556 18.116 0.550667C18.4831 0.917778 18.6667 1.36267 18.6667 1.88533V8.82C18.4769 8.75 18.2887 8.69011 18.102 8.64033C17.9146 8.59056 17.7139 8.55167 17.5 8.52367V1.88533C17.5 1.70567 17.4253 1.54078 17.276 1.39067C17.1267 1.24056 16.9618 1.16589 16.7813 1.16667H1.88533C1.70567 1.16667 1.54078 1.24133 1.39067 1.39067C1.24056 1.54 1.16589 1.70489 1.16667 1.88533V17.5583H8.568C8.62089 17.8772 8.68933 18.1891 8.77333 18.494C8.85811 18.7989 8.97594 19.0898 9.12683 19.3667L9.08717 19.4063L7.763 18.4427L6.19267 19.5638L4.62233 18.4427L3.052 19.5638L1.4805 18.4427L0 19.5638ZM3.23167 14.3138H8.7255C8.76906 14.0999 8.82272 13.8997 8.8865 13.713C8.95028 13.5263 9.02494 13.3377 9.1105 13.1472H3.23167V14.3138ZM3.23167 9.91667H11.76C12.1411 9.61567 12.5494 9.36483 12.985 9.16417C13.4206 8.96272 13.8861 8.82467 14.3815 8.75H3.2305L3.23167 9.91667Z" fill="white"/>
</svg>
