<svg width="21" height="21" viewBox="0 0 21 21" fill="none" xmlns="http://www.w3.org/2000/svg">
<path d="M10.3281 20.6573L7.275 17.6198H3.03646V13.3812L0 10.3281L3.03646 7.275V3.03646H7.275L10.3281 0L13.3812 3.03646H17.6198V7.275L20.6573 10.3281L17.6198 13.3812V17.6198H13.3812L10.3281 20.6573ZM10.3281 19.1823L12.351 17.1594V12.4427C11.9983 12.2378 11.7066 11.8934 11.476 11.4094C11.2448 10.9253 11.1292 10.3698 11.1292 9.74271C11.1292 8.95174 11.3066 8.27708 11.6615 7.71875C12.017 7.16042 12.4542 6.88125 12.9729 6.88125C13.4722 6.88125 13.9007 7.16111 14.2583 7.72083C14.6167 8.27986 14.7958 8.95486 14.7958 9.74583C14.7958 10.3812 14.6781 10.9389 14.4427 11.4187C14.2073 11.8986 13.9174 12.2399 13.5729 12.4427V16.5781H16.5781V12.9323L19.1823 10.3281L16.5781 7.72396V4.07812H12.9323L10.3281 1.47396L7.72396 4.07812H4.07812V7.72396L1.47396 10.3281L4.07812 12.9323V16.5781H7.08333V11.7906C6.725 11.6997 6.43194 11.508 6.20417 11.2156C5.975 10.924 5.86042 10.5875 5.86042 10.2063V6.88333H6.66979V9.97396H7.27604V6.88229H8.08437V9.97292H8.70312V6.88229H9.52604V10.2063C9.52604 10.5868 9.40868 10.9236 9.17396 11.2167C8.93924 11.5083 8.64965 11.6993 8.30521 11.7896V17.1594L10.3281 19.1823Z" fill="#B1B1B1"/>
</svg>
