<svg width="21" height="21" viewBox="0 0 21 21" fill="none" xmlns="http://www.w3.org/2000/svg">
<path d="M19.5 10.1228C19.503 11.984 18.9494 13.8036 17.9104 15.3478C17.0536 16.626 15.8949 17.6733 14.537 18.3971C13.1791 19.1209 11.6638 19.499 10.125 19.4978C8.58622 19.499 7.07087 19.1209 5.71296 18.3971C4.35506 17.6733 3.19644 16.626 2.33958 15.3478C1.52368 14.1316 1.00407 12.7411 0.822402 11.2879C0.640739 9.83462 0.802079 8.35903 1.29349 6.97937C1.7849 5.59972 2.5927 4.35438 3.65215 3.3432C4.7116 2.33201 5.99323 1.58311 7.39428 1.15651C8.79533 0.729921 10.2768 0.637509 11.72 0.886686C13.1633 1.13586 14.528 1.7197 15.7049 2.59139C16.8818 3.46308 17.8381 4.59837 18.4972 5.90627C19.1562 7.21416 19.4997 8.65827 19.5 10.1228Z" stroke="#B1B1B1" stroke-width="1.5"/>
</svg>
